<svg xmlns="http://www.w3.org/2000/svg" width="243.1" height="35" viewBox="0 0 243.1 35"><rect class="svg__rect" x="0" y="0" width="117.03" height="35" fill="#EA4560"/><rect class="svg__rect" x="115.03" y="0" width="128.07" height="35" fill="#389AD5"/><path class="svg__text" d="M17.33 22L14.22 22L14.22 13.47L17.14 13.47Q18.59 13.47 19.34 14.05Q20.10 14.63 20.10 15.78L20.10 15.78Q20.10 16.36 19.78 16.83Q19.47 17.30 18.86 17.56L18.86 17.56Q19.55 17.75 19.93 18.26Q20.31 18.78 20.31 19.51L20.31 19.51Q20.31 20.71 19.53 21.36Q18.76 22 17.33 22L17.33 22ZM15.70 18.15L15.70 20.82L17.35 20.82Q18.04 20.82 18.44 20.47Q18.83 20.13 18.83 19.51L18.83 19.51Q18.83 18.18 17.47 18.15L17.47 18.15L15.70 18.15ZM15.70 14.66L15.70 17.06L17.15 17.06Q17.84 17.06 18.23 16.75Q18.62 16.43 18.62 15.86L18.62 15.86Q18.62 15.23 18.26 14.95Q17.90 14.66 17.14 14.66L17.14 14.66L15.70 14.66ZM24.64 19.16L24.64 19.16L24.64 13.47L26.12 13.47L26.12 19.18Q26.12 20.03 26.55 20.48Q26.98 20.93 27.83 20.93L27.83 20.93Q29.54 20.93 29.54 19.13L29.54 19.13L29.54 13.47L31.02 13.47L31.02 19.17Q31.02 20.53 30.15 21.32Q29.28 22.12 27.83 22.12L27.83 22.12Q26.36 22.12 25.50 21.33Q24.64 20.55 24.64 19.16ZM37.15 22L35.67 22L35.67 13.47L37.15 13.47L37.15 22ZM47.32 22L41.96 22L41.96 13.47L43.44 13.47L43.44 20.82L47.32 20.82L47.32 22ZM53.12 14.66L50.49 14.66L50.49 13.47L57.25 13.47L57.25 14.66L54.59 14.66L54.59 22L53.12 22L53.12 14.66ZM68.37 22L66.40 13.47L67.87 13.47L69.20 19.88L70.82 13.47L72.07 13.47L73.68 19.89L74.99 13.47L76.46 13.47L74.49 22L73.07 22L71.45 15.77L69.79 22L68.37 22ZM82.10 22L80.62 22L80.62 13.47L82.10 13.47L82.10 22ZM88.59 14.66L85.95 14.66L85.95 13.47L92.72 13.47L92.72 14.66L90.06 14.66L90.06 22L88.59 22L88.59 14.66ZM97.96 22L96.48 22L96.48 13.47L97.96 13.47L97.96 17.02L101.77 17.02L101.77 13.47L103.25 13.47L103.25 22L101.77 22L101.77 18.21L97.96 18.21L97.96 22Z" fill="#FFFFFF"/><path class="svg__text" d="M128.63 21.24L128.63 21.24L129.41 19.49Q129.97 19.86 130.72 20.09Q131.46 20.32 132.18 20.32L132.18 20.32Q133.55 20.32 133.55 19.64L133.55 19.64Q133.55 19.28 133.16 19.11Q132.77 18.93 131.91 18.74L131.91 18.74Q130.96 18.53 130.32 18.30Q129.69 18.06 129.23 17.55Q128.78 17.03 128.78 16.16L128.78 16.16Q128.78 15.39 129.20 14.77Q129.62 14.15 130.45 13.79Q131.29 13.43 132.49 13.43L132.49 13.43Q133.32 13.43 134.13 13.62Q134.93 13.80 135.55 14.17L135.55 14.17L134.81 15.93Q133.61 15.28 132.48 15.28L132.48 15.28Q131.77 15.28 131.45 15.49Q131.13 15.70 131.13 16.04L131.13 16.04Q131.13 16.37 131.51 16.54Q131.90 16.71 132.75 16.89L132.75 16.89Q133.71 17.10 134.34 17.33Q134.97 17.56 135.43 18.07Q135.89 18.58 135.89 19.46L135.89 19.46Q135.89 20.21 135.47 20.83Q135.05 21.44 134.21 21.80Q133.37 22.17 132.17 22.17L132.17 22.17Q131.15 22.17 130.19 21.92Q129.23 21.67 128.63 21.24ZM142.59 18.95L139.39 13.60L141.90 13.60L143.89 16.94L145.88 13.60L148.18 13.60L144.97 18.99L144.97 22L142.59 22L142.59 18.95ZM154.47 22L152.27 22L152.27 13.60L154.23 13.60L157.18 18.45L160.06 13.60L162.01 13.60L162.04 22L159.86 22L159.83 17.55L157.67 21.17L156.62 21.17L154.47 17.67L154.47 22ZM169.58 22L167.20 22L167.20 13.60L173.79 13.60L173.79 15.44L169.58 15.44L169.58 17.28L173.29 17.28L173.29 19.12L169.58 19.12L169.58 22ZM177.96 17.80L177.96 17.80Q177.96 16.55 178.56 15.55Q179.16 14.56 180.23 14.00Q181.29 13.43 182.62 13.43L182.62 13.43Q183.95 13.43 185.01 14.00Q186.08 14.56 186.68 15.55Q187.29 16.55 187.29 17.80L187.29 17.80Q187.29 19.05 186.68 20.04Q186.08 21.04 185.02 21.60Q183.96 22.17 182.62 22.17L182.62 22.17Q181.29 22.17 180.23 21.60Q179.16 21.04 178.56 20.04Q177.96 19.05 177.96 17.80ZM180.35 17.80L180.35 17.80Q180.35 18.51 180.65 19.05Q180.96 19.60 181.47 19.90Q181.99 20.20 182.62 20.20L182.62 20.20Q183.26 20.20 183.77 19.90Q184.29 19.60 184.59 19.05Q184.89 18.51 184.89 17.80L184.89 17.80Q184.89 17.09 184.59 16.54Q184.29 16 183.77 15.70Q183.26 15.40 182.62 15.40L182.62 15.40Q181.98 15.40 181.47 15.70Q180.96 16 180.65 16.54Q180.35 17.09 180.35 17.80ZM194.35 22L192.02 22L192.02 13.60L193.98 13.60L197.68 18.07L197.68 13.60L200.01 13.60L200.01 22L198.06 22L194.35 17.52L194.35 22ZM207.30 18.95L204.09 13.60L206.60 13.60L208.59 16.94L210.59 13.60L212.89 13.60L209.67 18.99L209.67 22L207.30 22L207.30 18.95ZM223.52 18.03L223.52 18.03Q223.52 16.59 224.08 15.55Q224.63 14.51 225.64 13.97Q226.65 13.43 227.98 13.43L227.98 13.43Q228.70 13.43 229.35 13.59Q230.00 13.74 230.45 14.04L230.45 14.04L229.59 15.75Q228.98 15.31 228.04 15.31L228.04 15.31Q227.13 15.31 226.57 15.82Q226.00 16.32 225.92 17.27L225.92 17.27Q226.64 16.65 227.81 16.65L227.81 16.65Q228.60 16.65 229.26 16.98Q229.92 17.31 230.31 17.91Q230.70 18.52 230.70 19.30L230.70 19.30Q230.70 20.15 230.27 20.80Q229.83 21.46 229.08 21.82Q228.33 22.17 227.40 22.17L227.40 22.17Q225.60 22.17 224.56 21.10Q223.52 20.03 223.52 18.03ZM226.09 19.42L226.09 19.42Q226.09 19.89 226.40 20.18Q226.72 20.48 227.26 20.48L227.26 20.48Q227.77 20.48 228.08 20.19Q228.40 19.90 228.40 19.41L228.40 19.41Q228.40 18.93 228.08 18.64Q227.77 18.35 227.25 18.35L227.25 18.35Q226.74 18.35 226.41 18.65Q226.09 18.94 226.09 19.42Z" fill="#FFFFFF" x="128.03"/></svg>