<svg xmlns="http://www.w3.org/2000/svg" width="128.43" height="35" viewBox="0 0 128.43 35"><rect class="svg__rect" x="0" y="0" width="128.43" height="35" fill="#8FC965"/><rect class="svg__rect" x="128.43" y="0" width="0" height="35" fill="#389AD5"/><path class="svg__text" d="M19.80 22L14.22 22L14.22 13.47L19.75 13.47L19.75 14.66L15.70 14.66L15.70 17.02L19.20 17.02L19.20 18.19L15.70 18.19L15.70 20.82L19.80 20.82L19.80 22ZM26.62 18.95L23.54 18.95L23.54 17.80L26.62 17.80L26.62 18.95ZM30.65 18.19L30.65 18.19L30.65 17.39Q30.65 16.19 31.07 15.27Q31.50 14.35 32.30 13.85Q33.10 13.35 34.15 13.35L34.15 13.35Q35.56 13.35 36.42 14.12Q37.29 14.89 37.43 16.29L37.43 16.29L35.95 16.29Q35.84 15.37 35.41 14.96Q34.98 14.55 34.15 14.55L34.15 14.55Q33.18 14.55 32.67 15.26Q32.15 15.96 32.14 17.33L32.14 17.33L32.14 18.09Q32.14 19.47 32.63 20.20Q33.13 20.92 34.08 20.92L34.08 20.92Q34.95 20.92 35.39 20.53Q35.83 20.14 35.95 19.22L35.95 19.22L37.43 19.22Q37.30 20.59 36.42 21.35Q35.54 22.12 34.08 22.12L34.08 22.12Q33.06 22.12 32.28 21.63Q31.51 21.15 31.09 20.26Q30.66 19.37 30.65 18.19ZM41.47 18.00L41.47 18.00L41.47 17.52Q41.47 16.28 41.91 15.32Q42.35 14.37 43.16 13.86Q43.97 13.35 45.01 13.35Q46.05 13.35 46.86 13.85Q47.66 14.35 48.10 15.29Q48.54 16.23 48.55 17.48L48.55 17.48L48.55 17.96Q48.55 19.21 48.11 20.16Q47.68 21.10 46.87 21.61Q46.07 22.12 45.02 22.12L45.02 22.12Q43.98 22.12 43.17 21.61Q42.36 21.10 41.92 20.17Q41.48 19.23 41.47 18.00ZM42.95 17.46L42.95 17.96Q42.95 19.36 43.50 20.13Q44.05 20.90 45.02 20.90L45.02 20.90Q46.00 20.90 46.53 20.15Q47.06 19.40 47.06 17.96L47.06 17.96L47.06 17.51Q47.06 16.09 46.53 15.34Q45.99 14.58 45.01 14.58L45.01 14.58Q44.05 14.58 43.51 15.33Q42.96 16.09 42.95 17.46L42.95 17.46ZM54.49 22L53.01 22L53.01 13.47L54.93 13.47L57.39 20.01L59.85 13.47L61.77 13.47L61.77 22L60.29 22L60.29 19.19L60.44 15.43L57.92 22L56.86 22L54.34 15.43L54.49 19.19L54.49 22ZM67.98 22L66.51 22L66.51 13.47L68.43 13.47L70.89 20.01L73.34 13.47L75.26 13.47L75.26 22L73.78 22L73.78 19.19L73.93 15.43L71.41 22L70.35 22L67.84 15.43L67.98 19.19L67.98 22ZM85.58 22L80.00 22L80.00 13.47L85.54 13.47L85.54 14.66L81.48 14.66L81.48 17.02L84.99 17.02L84.99 18.19L81.48 18.19L81.48 20.82L85.58 20.82L85.58 22ZM91.26 22L89.77 22L89.77 13.47L92.77 13.47Q94.25 13.47 95.05 14.13Q95.86 14.79 95.86 16.05L95.86 16.05Q95.86 16.90 95.44 17.48Q95.03 18.06 94.29 18.37L94.29 18.37L96.21 21.92L96.21 22L94.62 22L92.91 18.71L91.26 18.71L91.26 22ZM91.26 14.66L91.26 17.52L92.78 17.52Q93.53 17.52 93.95 17.15Q94.37 16.77 94.37 16.11L94.37 16.11Q94.37 15.43 93.98 15.05Q93.59 14.68 92.82 14.66L92.82 14.66L91.26 14.66ZM99.98 18.19L99.98 18.19L99.98 17.39Q99.98 16.19 100.41 15.27Q100.84 14.35 101.64 13.85Q102.44 13.35 103.48 13.35L103.48 13.35Q104.90 13.35 105.76 14.12Q106.62 14.89 106.76 16.29L106.76 16.29L105.28 16.29Q105.18 15.37 104.75 14.96Q104.32 14.55 103.48 14.55L103.48 14.55Q102.52 14.55 102.00 15.26Q101.48 15.96 101.47 17.33L101.47 17.33L101.47 18.09Q101.47 19.47 101.96 20.20Q102.46 20.92 103.41 20.92L103.41 20.92Q104.29 20.92 104.73 20.53Q105.17 20.14 105.28 19.22L105.28 19.22L106.76 19.22Q106.63 20.59 105.75 21.35Q104.87 22.12 103.41 22.12L103.41 22.12Q102.39 22.12 101.62 21.63Q100.84 21.15 100.42 20.26Q100.00 19.37 99.98 18.19ZM116.65 22L111.07 22L111.07 13.47L116.61 13.47L116.61 14.66L112.56 14.66L112.56 17.02L116.06 17.02L116.06 18.19L112.56 18.19L112.56 20.82L116.65 20.82L116.65 22Z" fill="#FFFFFF"/><path class="svg__text" d="" fill="#FFFFFF" x="141.43"/></svg>